<svg version="1.0" xmlns="http://www.w3.org/2000/svg"
 width="900.000000pt" height="279.000000pt" viewBox="0 0 900.000000 279.000000"
 preserveAspectRatio="xMidYMid meet">

<g transform="translate(0.000000,279.000000) scale(0.100000,-0.100000)"
fill="#000000" stroke="none">
<path d="M852 2429 c-77 -15 -140 -66 -183 -150 -19 -38 -19 -60 -17 -907 l3
-868 35 -51 c37 -54 86 -93 139 -111 25 -9 947 -12 3615 -12 3473 0 3582 1
3622 19 51 23 107 78 136 134 l23 42 2 833 c2 475 -1 851 -6 874 -15 64 -74
141 -134 174 l-52 29 -3570 1 c-1963 1 -3589 -2 -3613 -7z m7224 -64 c27 -17
62 -51 79 -75 l30 -45 3 -845 c3 -941 6 -894 -65 -965 -20 -20 -52 -42 -71
-50 -30 -13 -511 -15 -3611 -15 -3669 0 -3607 -1 -3661 35 -23 15 -66 77 -84
119 -14 33 -16 134 -16 843 0 820 2 865 38 921 20 30 77 86 94 91 7 2 27 7 43
11 17 5 1637 7 3601 7 l3571 -2 49 -30z"/>
<path d="M888 2291 c-20 -4 -44 -14 -53 -21 -46 -38 -45 -21 -45 -890 0 -903
-3 -862 61 -894 29 -15 366 -16 3593 -16 l3561 0 38 35 c22 20 37 43 37 57 0
12 2 382 4 822 5 885 6 859 -58 894 -29 16 -250 17 -3566 18 -1944 1 -3552 -1
-3572 -5z m7112 -90 c15 -30 14 -1623 -2 -1639 -9 -9 -815 -12 -3565 -12
-3498 0 -3552 0 -3563 19 -6 13 -10 288 -10 820 1 705 3 802 16 816 14 13 389
15 3564 15 3499 0 3549 0 3560 -19z"/>
<path d="M1280 1803 c0 -4 7 -25 15 -48 13 -37 135 -420 150 -473 8 -29 22
-20 30 21 3 17 10 41 15 52 5 11 27 81 50 155 23 74 46 144 50 155 26 69 41
126 35 135 -7 11 -345 15 -345 3z"/>
<path d="M1845 1800 c-3 -5 3 -36 14 -67 26 -74 128 -399 136 -435 15 -59 16
-56 130 307 26 83 51 160 55 172 5 11 6 24 3 27 -11 10 -331 7 -338 -4z"/>
<path d="M2380 1788 c-8 -20 -64 -196 -171 -533 -17 -55 -47 -144 -65 -198
-19 -55 -34 -101 -34 -103 0 -2 225 -4 500 -4 l501 0 -3 83 -3 82 -277 3 -278
2 0 90 0 90 193 2 192 3 0 80 c0 78 -1 80 -25 82 -14 0 -101 1 -193 2 l-168 1
3 88 3 87 278 3 277 2 0 80 0 80 -360 0 -360 0 -10 -22z"/>
<path d="M3360 1790 c-109 -51 -160 -124 -160 -230 0 -101 48 -184 131 -226
43 -21 66 -25 206 -30 168 -6 194 -13 215 -59 17 -37 2 -88 -31 -108 -24 -14
-55 -17 -169 -17 -124 0 -142 2 -165 20 -13 11 -28 31 -31 45 -6 24 -10 25
-81 25 l-75 0 0 -30 c0 -74 59 -158 138 -197 55 -27 62 -28 222 -28 160 0 167
1 216 27 92 49 136 122 137 228 1 77 -18 123 -75 179 -57 57 -99 69 -277 75
-149 5 -156 6 -180 31 -37 37 -34 99 5 130 27 21 40 23 156 24 148 2 193 -10
211 -59 11 -30 12 -30 84 -30 39 0 74 4 77 9 12 19 -27 114 -62 153 -62 69
-102 81 -287 85 -146 3 -164 2 -205 -17z"/>
<path d="M4047 1804 c-4 -4 -7 -198 -7 -431 l0 -424 263 3 c251 3 264 4 310
27 138 67 189 216 120 349 l-30 58 24 37 c78 124 29 293 -106 359 -44 22 -59
23 -306 26 -143 2 -264 0 -268 -4z m503 -167 c43 -15 65 -55 55 -103 -11 -62
-35 -69 -230 -69 l-170 0 -3 79 c-2 44 -1 85 2 93 7 17 294 18 346 0z m31
-366 c20 -20 29 -39 29 -61 0 -22 -9 -41 -29 -61 l-29 -29 -176 0 -176 0 0 90
0 90 176 0 176 0 29 -29z"/>
<path d="M4897 1803 c-4 -3 -7 -197 -7 -430 l0 -423 80 0 80 0 0 430 0 430
-73 0 c-41 0 -77 -3 -80 -7z"/>
<path d="M5180 1730 l0 -79 138 -3 137 -3 3 -348 2 -348 78 3 77 3 3 348 2
347 140 0 140 0 0 80 0 80 -360 0 -360 0 0 -80z"/>
<path d="M6030 1730 c0 -57 4 -80 13 -80 6 -1 68 -2 137 -3 l125 -2 3 -348 2
-348 78 3 77 3 3 347 2 347 138 3 137 3 0 75 0 75 -357 3 -358 2 0 -80z"/>
<path d="M6880 1806 c0 -1 20 -45 44 -97 24 -52 54 -116 66 -144 12 -27 41
-90 65 -140 106 -223 105 -221 105 -355 l0 -121 78 3 77 3 5 135 c3 74 11 146
17 160 6 14 36 78 67 144 31 65 56 120 56 122 0 2 21 47 46 101 51 108 84 182
84 189 0 7 -155 4 -166 -4 -10 -6 -89 -170 -144 -299 -37 -87 -44 -87 -89 8
-21 46 -62 132 -90 192 l-51 107 -85 0 c-47 0 -85 -2 -85 -4z"/>
<path d="M1727 1493 c-3 -5 -16 -46 -30 -93 -15 -47 -51 -161 -82 -255 -30
-93 -55 -175 -55 -182 0 -10 40 -13 175 -13 111 0 175 4 175 10 0 6 -24 83
-53 173 -30 89 -68 208 -86 265 -32 101 -36 109 -44 95z"/>
</g>
</svg>
